<?xml version="1.0" encoding="utf-8"?><svg xmlns="http://www.w3.org/2000/svg" version="1.1" baseProfile="tiny" width="800" height="600" viewBox="0 0 800 600"><g><g stroke="#000000" stroke-width=".98" fill="#FFFFFF"><path d="m271.46 233.41l-.1.64-.1.31-.19.42-.13.22-.14.19-.73.73-.1.14-.3.47-.19.42-.14.46-.09.44.04.51.13.62 1.32 4.34 1.49 3.75.31.64.44.74.71 1.03.86 1.03.31.62.66 1.42.26.75.17.71.15 1.45.08.43.2.83.22.65.47.65.38.43.56.56.59.48.32.33.38.47.27.4.33.62.26.58.16.43.12.43.09.49.04.5-.01.23 1.91-1.09 1.36-.82.42-.25 4.12-2.59 3.81-2.3 1.37-.86 1.56-.89 1.72-1.14.04-1.79 2.22-1.34.75-.41 3.62 4.32 1.04.49 2.37.56 1.3.16 2.23 0 .89-.05.31-.14.14-.1.97-1.09.17-.1.98-.01 1.12-.11.49-.09.48-.15.22-.21.22-.27.67-1.16.94-1.77.28-.75 5.06-9.2 1.15-2.14 1.19-2.38-.43-.18.03-.24.87-2.08.14-.22.18-.15.26-.1.41-.05.35.09.46-1.74.67-2.49 2.05-7.19 2.13-1.69.59-2.13 1.57-2.8 4.51-7.77-.9-.21-1.18-.33-2.61-.87-2.36-1.06-2.25-1.23-2.44-1.51-1.85-1.47-2.02-1.78-1.86-1.98-1.73-2.25-1.39-2.12-1.28-2.2-1.22-2.74-.88-2.56-.54-2.02-1.45-6.39-6.01.77-.1.61-.02.49.02.05-.21.07-.34-1.14-13.49 1.72-3.34-.82-.97 3.79-1.59 4.03-1.37 2.88-.5 1.01-1.08 2.75-.35.94-1.87 5.39-.23.52-.35.57-.33.39-.5.46-.64.43-.23.26-.14.25-.08.24-.04.21 0 .25.02.21.12.34.52.88.04.21-.01.23-3.65 10.33.44.16-.4 1.13-.05-.02-.35.97.23.08-2.94 8.32-1.24 3.49-.22.8-.06.49-.69-.09-.05.5-.06 1.15.06 1.27z" /><path d="m12.39 212.58l.03.66.1 2.65.11 2.53-4.02 5-1.81.82 1.29 2.57 1.28 3.08 1.25 4.05.83 3.79.37 2.74.16 1.82.11 1.95 0 2.26-.11 1.29-.13 1.03-.86 6.26-2.86 19.45-1.94 12.78-.71 4.94-.38 2.37-.1 1.73.29 2.49.4 1.4.49 1.05.85 1.39.97 1.14 1.24 1.09 1.53 1.11 1.7 1.01 9.11 5.49 11.89 7.23.33-.6 2.6-4.33 2.8-4.85.42-.57.39-.42.44-.39.43-.33.52-.32.61-.31 1.29-.47.62-.29.54-.29.56-.36.92-.76.68-.66.64-.72.58-.75 2.42-3.53 1.07-1.74.49-.57.28-.19.16-.07.34-.08.52-.02 1.78.48-.63 1.71 21.5 13.38 1.13.56.42.14.86.19.87.07.54-.02.8-.08.55-.08.72-.16 2.23-.71.68-.17 2.95-.98 1.39 3.71 1.56 4.47.61 1.68.28.92 1.65 4.16 1.53 4.69 1.97 5.32 1.21-3 1.19-2.07.97-1.26.61-.7.66-.7.58-.55 1.05-.84.86-.6 1.18-.72 1.03-.51 1.42-.61 1.32-.45 5.42-1.94 10.03-3.58 6.48-2.31 1.35-.37 1.15-.22.96-.12.64-.05 2.75-.04 13.86-.66-5.67-15.93 1.23-.5-.33-7.15-3.06-2.35-.29.3-.26.22-.57.4-.36.17-2.32.89-.1-.3-5.24 1.87-2.09-6.1-4.1-11.98-.2-.52-.27-.35-.28-.23-.35-.16-.32-.05-.24-.07-.29-.14-.18-.12-.24-.2-.16-.18-.13-.18-.14-.27-.8-2.18-.12-.46-.1-.53-.05-.61 0-.37.04-.52.12-.57.02-.41-.06-.66-.17-.58-.1-.23-.23-.41-1.6-1.76-.83-1.62-.18-.47-3.4-9.5-1.27-3.41-.36-1.08-.3-1.03-.29-1.1-.15-.73-.09-1.12.01-.72.04-.49.14-1.02.12-.53-8.89-1.22-16.45-2.22-2.01.03-.62-.81-1.39-2.96-1.26.59-.95-1.08-1.61-1.19-.9-.93-1.85-1.42-1.21 1.51-4.18 5.52-4.56 6.19-3.41 4.57-4.05 5.13-.43.61-.62-.32-4.01-3.77-6.51-5.71-.26-.44-1.59-1.45-12.33-11.04-2.07-2.39-2.01-1.4-2.61-2.23-2.55-2.51-1.02-1.1-1.54-1.45-1.95-1.23-1.85-1.23-1.71-1.28-4.49-3.96-.1-.04-.11 0-.1.03-.09.06-1.7 1.92-.28-.27z" /><path d="m280.56 263.97l0 .53.04.53.09.53.13.51.1.31.14.28.18.25.24.25.4.26.64.26.44.22.64.4.38.29.32.3.62.64.67.83.25.68.14.63.13.92.09.34.14.33.07.16.24.33.25.24.31.22.37.21.3.13.26.06.27.03 2.23.01.47.07.44.13.43.19.38.23 4.3 3.33 2.47 1.92.67.55.61.64.52.67.27.43.28.52.53.75.66.75.73.67.35.27.45.3.46.25.45.21.46.18.5.16.49.12.5.08 11.79.86 4.15.3.49-.06.55-.1.55-.14.55-.17.52-.2 5.35-1.94 5.12-1.78 1.39-.63 1.16-.52 1.79-.6.43-.19.73-.44.3-.22.61-.57.39-.47.59-.8.29-.3.29-.26.3-.23.42-.26.77-.35.53-.2.54-.08.5.02.71.17.65.05.7-.04.66-.16.67-.28.6-.37.54-.49.25-.29.18-.26.18-.19.26-.21.3-.15.34-.11 2.36-.46 2.62-.57 2.29-1.12 1.54-.74.49-.19.52-.15.39-.09 2.38-.22.71-.07.71-.19.65-.29.61-.4.36-.31.34-.36 1.47-2.16.35-.31.37-.26.36-.18.39-.14 1.58-.26.84-.19.62-.17.34-.16.32-.2.29-.26.24-.27 5.33-5.55 1.79-1.57 2.17-2.25.27-.23.27-.19.3-.16.33-.14.4-.11.43-.06 9.03-.49 1.25-3.66-.15-.11-.04-.13.01-.1-.05-.01 1.02-3.04.21-.74.26-1.35.13-1.21.07-1.82-.09-.53-.06-1.15.12-.15.03 0-.16-.94-.03.01-.01-.07-.1.01-.08-.04-.08-.13-.04-.63-.35-1.35-.29-.81-.43-.7-.01-.12.03-.06.14-.13-.33-.64-.17.02-.17-.09-.31-.61-.52-.69-.72-.84-.58-.58-.68-.6-.75-.55-.81-.52-.76-.41-1.01-.45-1.92-.69-1.44-.59-.47-.21-7.74-3.81-.48-.2-1.19-.44-1.07-.31-3.34-.74.04-.19-.61-.13-.02.06-.04-.01-.03.12-1.67-.35-13.39-3.18-.88-.18-1.24-.17-.57-.04-1.28 0-.72.04-.62.07-.07-.03-.02-.08-.23.04-.2-1.09.3-.05.1-.27-.27-1.43-1.83-.16-1.48-8.22-4.23.32-2.36-.04-2.43-.43-.28-.07-4.51 7.77-1.57 2.8-.59 2.13-2.13 1.69-2.05 7.19-.67 2.49-.46 1.74-.35-.09-.41.05-.26.1-.18.15-.14.22-.87 2.08-.03.24.43.18-1.19 2.38-1.15 2.14-5.06 9.2-.28.75-.94 1.77-.67 1.16-.22.27-.22.21-.48.15-.49.09-1.12.11-.98.01-.17.1-.97 1.09-.14.1-.31.14-.89.05-2.23 0-1.3-.16-2.37-.56-1.04-.49-3.62-4.32-.75.41-2.22 1.34-.04 1.79-1.72 1.14-1.56.89-1.37.86-3.81 2.3-4.12 2.59-.42.25-1.36.82-1.91 1.09z" /><path d="m200.24 155.77l-.15 1.31-.1 1.23-.05 1.19-.01 1.56.09 2.04.8 13.65.13 2.25.65-.01 0-.08.05 0 .02.59-.05 0 .02.49.36 6.16-.01 1.96.26 4.48.03 0 0 .14.49-.05.64-.15.54-.06 1.4 0 2.91-.1 12.12-.64 4.73-.31.31.01.92-.03 2.25-.13 8.87-.48.16 3.19.1.68.16.75.17.55.22.57.84 1.82.69 1.71.44 1.27.29.91 1.73 6.58 4.49 17.96.49 1.96.13.4.17.41.22.39.2.28 5.27 6.81-1.86 3.51 20.09-7.13-.06-1.27.06-1.15.05-.5.69.09.06-.49.22-.8 1.24-3.49 2.94-8.32-.23-.08.35-.97.05.02.4-1.13-.44-.16 3.65-10.33.01-.23-.04-.21-.52-.88-.12-.34-.02-.21 0-.25.04-.21.08-.24.14-.25.23-.26.64-.43.5-.46.33-.39.35-.57.23-.52 1.87-5.39.35-.94 1.08-2.75.5-1.01 1.37-2.88 1.59-4.03.97-3.79 3.34.82 13.49-1.72.34 1.14.21-.07-.02-.05.02-.49.1-.61 6.01-.77-2.75-12.12-.8-2.78-1.06-2.66-1.29-2.3-1.5-2.07-5.11-5.76-8.96-10.53-.83.79-19.33 17.05-.28.18-.31.14-.28.08-.32.05-.4 0-6.43-.79-.34-.03-.29.02-.37.06-1.62.52-.21-.54-.44-.85-.02-.26-.48-.65-8.85 7.2-.35-.05-.4-.09-.61-.22-.51-.24-.66-.41-.03.04-.08-.04-.38.54-.38 1.08-.09-.03-.06.16-.13.06-2.92 1.08-1.87-2.26-.65-.72-1.09-1.09-.61-.52-1.14-.89-.64-.41-1.44-.85-.82-.38-.94-.38-.94-.35-.95-.28-.88-.22-1.83-.31-.86-.08-.81-.03-1.01 0-2.83.09-.03-.42-1.45.06.01-.06-9.19.33.01.04-.71.03 0-.04-3.22.11-4.33.17.01.04-.8.03 0-.23-1.66.09-1.12.11-.13.12-1.12.16-.19.1-1.17.34z" /><path d="m182.35 236.63l11.77 2.68.58.1.73.08 3.14.1.97 0 3.01.01 1.96-.13.61-.08.81-.15.37-.11.61-.25.92-.21.76-.13 3.87-1.19.95-.29 1.5-.51 2.49-.89 2.85-.9 1.06-.33.54-.27 3.3-2.34.34-.2.31-.14.33-.12 1.03-.25 4.69-1 2.24-.29 2.31-.52 1.56-.48 3.56-.74 1.76-.43 3.47-.87-4.49-17.96-1.73-6.58-.29-.91-.44-1.27-.69-1.71-.84-1.82-.22-.57-.17-.55-.16-.75-.1-.68-.16-3.19-8.87.48-2.25.13-.92.03-.31-.01-4.73.31-12.12.64-2.91.1-1.4 0-.54.06-.64.15-.49.05-1.94.12-1.43-.01-7.66.43-1.29.1.27 1.56.13-.01.07.57-.05 0 .12 1.4-.02.01.03.72 0 .77.03 0-.01.26-.03 0-.07 1.43.03 0-.2 1.7.02.01-.32 1.79-.02.02-.06.29-.03-.01-.28 1.19.05.01-.09.37.04.01-.06.25-.04-.01-.26 1.15.04.01-.18.76-.04-.01-.29 1.28.04.01-.17.75-.04-.01-.3 1.31.04.01-.18.76-.03-.01-.2.94.02.01-.49 2.12-.04-.01-.06.27-.03-.01-.33 1.45.08-.02-.04.26-.06.24-.04-.01-.3 1.28 0 .09-.14.64-1.38 5.99-2.42 10.59-.03 0-.08.33-.03-.01-.18.77z" /><path d="m199.54 239.59l0 1.11-.38 0 0 .12-.12.07-.1 3.61-.23 3.05-.01.73.04.87 5.88-.27 1.11-.1 1.04-.14.95-.19.89-.22 1.34-.37.28.91 1.35-.41.84 2.72-.06.1 3.98 12.85.14-.05.17.58.03.21.16 3.33-2.91.13.14 3.11.55-.02.34 8.77-1.37.72.24 9.85.03.47 2.55-.09 1.19 0 3.55-.13.62.05.43-.04.43-.1.36-.19.88-.33.32-.1.16.02.61.23 1.99.92-.95 2.11-.4 2.4 2.15.36 8.48-3.83 1.9-.82 4.42-2-.02-.06.96-.42.02.04 2.02-.89.02.03 1.07-.42 3.91-1.65.08-.02.1.55.03.03.58.1.23-.42-.01-.67 2.13-.9 2.8-1.13 1.08-.48 2.88-1.36.24.5 2.61-1.16.13.3.38-.18-.47-1.05.25-.11.36.76.67 0 .16-.04.58-.19.61-.25 1.23-.65.59-.4.52.03.19-.05.26-.13.14-.08.08-.18.05-.44.36-.16.13.13.18.05.22.12.31.01.47.05.95.43.49.36.16.02.17-.02.17-.1.13-.17.15-.25.5.17.11.19.69-.35.17.24.52-.23.16.36-.02.07.09.19.06.03.03.13.71-.3-.05-.11.23-.09-.04-.09-.08.01-.04-.08-.12-.05-.06.02-.33-.72.99-.48.38.83.06-.03.16.32 2.48-1.2 4.43-2.07 3.28-1.62-.31-.22-.25-.24-.24-.33-.07-.16-.14-.33-.09-.34-.13-.92-.14-.63-.25-.68-.67-.83-.62-.64-.32-.3-.38-.29-.64-.4-.44-.22-.64-.26-.4-.26-.24-.25-.18-.25-.14-.28-.1-.31-.13-.51-.09-.53-.04-.53 0-.53.01-.23-.04-.5-.09-.49-.12-.43-.16-.43-.26-.58-.33-.62-.27-.4-.38-.47-.32-.33-.59-.48-.56-.56-.38-.43-.47-.65-.22-.65-.2-.83-.08-.43-.15-1.45-.17-.71-.26-.75-.66-1.42-.31-.62-.86-1.03-.71-1.03-.44-.74-.31-.64-1.49-3.75-1.32-4.34-.13-.62-.04-.51.09-.44.14-.46.19-.42.3-.47.1-.14.73-.73.14-.19.13-.22.19-.42.1-.31.1-.64-20.09 7.13 1.86-3.51-5.27-6.81-.2-.28-.22-.39-.17-.41-.13-.4-.49-1.96-3.47.87-1.76.43-3.56.74-1.56.48-2.31.52-2.24.29-4.69 1-1.03.25-.33.12-.31.14-.34.2-3.3 2.34-.54.27-1.06.33-2.85.9-2.49.89-1.5.51-.95.29-3.87 1.19-.76.13-.92.21-.61.25-.37.11-.81.15-.61.08-1.96.13-3.01-.01z" /><path d="m200.24 155.77l-.72.19-.67.11-.91.35-.71.31-.96.49-.29.07-.3.13-.74.46-1.2.83-.58.45-.92.79 1.7-2.28.66-.95-5.03-2.48-.1-.65-1.43-.66-2.06 2.74-1.29 0-3.37.11-.07 1.47-.07 4.53 0 2.8-.09.95.04 1.55-.01.11-.09.37-.17.25-1.16.34-1.37.29-1.43.2-1.43.09-31.57.85-2.92.06-2.86.02-1.19-.25-.62-.18-.53-.18-1.09-.43-.66-.32-1.45-.78-1.49-.89-1.33-.87-.81-.59-.78-.62-1.12-.97-.97-.89-.55-.55-1.29-1.41-.32-.39-.53-.79-.11-.18-.2.14-.47-.66-.22-.4-.22-.33-.35-.46-.44.34-.51-.7-1.48.97-.55.29-.57.38-.44.4-2.56 1.7-.25-.41-.18.13-.6.05-.26-.2-.27-.5-.26-.39-.34-.41-.18-.16-.16-.2-.6-.95-1.02-1.74-.46-.87-.96-1.96-.41-.91-.78-1.95-.79-2.29-.73-2.5-.16-.5-.36-.85-.32-.56-.45-.63-.6-.65-.55-.47-.13-.34-.42-.32-.41-.25-.66-.32-.54-.23-.56-.18-.91-.18-.79-.06-.6 0-.52.04-.59.1-.52.11-.34.1-.72.28-1.18.62-1.33.98-1.04.7-.75.37-.56.2-.36.11-.54.03-.89-.02-2.46.34-1.67.42-.69.11-39.28 1.03-4.1 15.71-5.46-9.11.12-1.27.07-.45.24-.73.32-.62.53-.66-4.53-1.89-.69-.24-3.37-.84-4.46-.85-1.44-.18-11.03-2-.88 4.76-2.42-1.01-1.58 8.46.25.11.19.19.16.19.17.29.09.27.03.31.06 1.74.07 1.1.09 1.07.1 1.57.12 1.58.09 1.9.02 1.09.05 1.9.05 1.01.04 1.25.02.88.03.72.02.66.06 1.47.07 2.18.03 5.09.91 6.67.1.38.32 1.47 1.2 10.03.03.85.02.25 62.99-2.48 15.25-.63 17.12-.74 11.42-.53 25.83-1.12 28.37-1.25 9.96-.51 7.19-.43 1.29-.1 7.66-.43 1.43.01 1.94-.12 0-.14-.03 0-.26-4.48.01-1.96-.36-6.16-.02-.49.05 0-.02-.59-.05 0 0 .08-.65.01-.13-2.25-.8-13.65-.09-2.04.01-1.56.05-1.19.1-1.23.15-1.31z" /><path d="m11.83 201.06l.11 1.63.28 6.34.05.89.02.55.1 2.11.28.27 1.7-1.92.09-.06.1-.03.11 0 .1.04 4.49 3.96 1.71 1.28 1.85 1.23 1.95 1.23 1.54 1.45 1.02 1.1 2.55 2.51 2.61 2.23 2.01 1.4 2.07 2.39 12.33 11.04 1.59 1.45.26.44 6.51 5.71 4.01 3.77.62.32.43-.61 4.05-5.13 3.41-4.57 4.56-6.19 4.18-5.52 1.21-1.51 1.85 1.42.9.93 1.61 1.19.95 1.08 1.26-.59 1.39 2.96.62.81 2.01-.03 16.45 2.22 8.89 1.22-.12.53-.14 1.02-.04.49-.01.72.09 1.12.15.73.29 1.1.3 1.03.36 1.08 1.27 3.41 3.4 9.5.18.47.83 1.62 1.6 1.76.23.41.1.23.17.58.06.66-.02.41-.12.57-.04.52 0 .37.05.61.1.53.12.46.8 2.18.14.27.13.18.16.18.24.2.18.12.29.14.24.07.32.05.35.16.28.23.27.35.2.52 4.1 11.98 10.74-15.38 18.16-25.84 3.23-4.6 4.95 5.56-.13.3-.04.21.05.22.12.19 1.44 1.19-.1.2 1.99.73.24-.36.32-.29 2.01-1.02.52-1.54.2-.85.74.17.38.13.97.23.3.12.43.28.26.11 1.62.35.24-1.94.27-1.95.49-2.5.68-2.95-.07-.02.17-.75.18-.77.03.01.08-.33.03 0 2.42-10.59 1.38-5.99.14-.64 0-.09.3-1.28.04.01.06-.24.04-.26-.08.02.33-1.45.03.01.06-.27.04.01.49-2.12-.02-.01.2-.94.03.01.18-.76-.04-.01.3-1.31.04.01.17-.75-.04-.01.29-1.28.04.01.18-.76-.04-.01.26-1.15.04.01.06-.25-.04-.01.09-.37-.05-.01.28-1.19.03.01.06-.29.02-.02.32-1.79-.02-.01.2-1.7-.03 0 .07-1.43.03 0 .01-.26-.03 0 0-.77-.03-.72.02-.01-.12-1.4.05 0-.07-.57-.13.01-.27-1.56-7.19.43-9.96.51-28.37 1.25-25.83 1.12-11.42.53-17.12.74-15.25.63-62.99 2.48z" /><path d="m33.47 319.75l9.81 5.97 7.75 4.91 8.04 5.11 6.15 3.88 10.63 6.74 4.48 2.83 4.53 2.91.87.58 2.04 1.93.79.95 1.24 1.87 8.7 13.24 2.87 4.29 1 1.11 1.03.85 21.47 13.81 11.18 7.12 6.25 4.05 2.2 1.71 1.64 1.7.44-.55 10.32-13.86 29.82-1.42 6.14-1.89 17.27-10.04 1.74-7.86.04-2.25-.31-2.86-6 .66-1.23.09-1.46.06-1.63 0-1.63-.09-1.49-.14-1.74-.26-1.11-.48-.55-.27-.53-.28-1.05-.62-.51-.33-.98-.71-.48-.38-.91-.8-.86-.86-.41-.45-.78-.93-.36-.49-1.01-1.48-.76-1.26-.44-.84-.69-1.61-.44-1.68-.23-1.12-.71-5.63-.18-1.74-.21-.83-.18-1.07-.05-.55-.16-4-8.83.38-6.35.15.08 1.59-1.83.1-.84.08-1.02.17-.53.13-1.23.4-1.53.67-.26.2-.19.22-.65.1-.31.03-.29-.01-.5-.11-.28-.12-.84-.45.02-.24-.04-.74-.03-.15-.25-.55-.29-.51-1.11-1.37-.22-.4-.05-.27.03-.61-.09-1.24-.06-.46.04-.17.28-.28-2.08-5.98-.16-.74-.1-1.18-.44-10.04-1.65.02-13.86.66-2.75.04-.64.05-.96.12-1.15.22-1.35.37-6.48 2.31-10.03 3.58-5.42 1.94-1.32.45-1.42.61-1.03.51-1.18.72-.86.6-1.05.84-.58.55-.66.7-.61.7-.97 1.26-1.19 2.07-1.21 3-1.97-5.32-1.53-4.69-1.65-4.16-.28-.92-.61-1.68-1.56-4.47-1.39-3.71-2.95.98-.68.17-2.23.71-.72.16-.55.08-.8.08-.54.02-.87-.07-.86-.19-.42-.14-1.13-.56-21.5-13.38.63-1.71-1.78-.48-.52.02-.34.08-.16.07-.28.19-.49.57-1.07 1.74-2.42 3.53-.58.75-.64.72-.68.66-.92.76-.56.36-.54.29-.62.29-1.29.47-.61.31-.52.32-.43.33-.44.39-.39.42-.42.57-2.8 4.85-2.6 4.33-.33.6z" /><path d="m132.17 286.63l2.09 6.1 5.24-1.87.1.3 2.32-.89.36-.17.57-.4.26-.22.29-.3 3.06 2.35.33 7.15-1.23.5 5.67 15.93 1.65-.02.44 10.04.1 1.18.16.74 2.08 5.98-.28.28-.04.17.06.46.09 1.24-.03.61.05.27.22.4 1.11 1.37.29.51.25.55.03.15.04.74-.02.24.84.45.28.12.5.11.29.01.31-.03.65-.1.19-.22.26-.2 1.53-.67 1.23-.4.53-.13 1.02-.17.84-.08 1.83-.1-.08-1.59 6.35-.15 8.83-.38.16 4 .05.55.18 1.07.21.83.18 1.74.71 5.63.23 1.12.44 1.68.69 1.61.44.84.76 1.26 1.01 1.48.36.49.78.93.41.45.86.86.91.8.48.38.98.71.51.33 1.05.62.53.28.55.27 1.11.48 1.74.26 1.49.14 1.63.09 1.63 0 1.46-.06 1.23-.09 6-.66-.18-1.64-.25.04-.01-.03-.42.06.01.03-.33.05-.01-.03-.09.02 0 .02-1.03.14 0 .03-.02.01-.02-.05-.02.02-.61.06-.84 0-.77-.06-.76-.12-.58-.14-.7-.26-.74-.35-.66-.39-.55-.4-.48-.45-.52-.57-.5-.67-.41-.7-.32-.68-.24-.66-.19-.68-.13-.62-.21-1.33-.34-2.59-.21-1.81-.6-5.85-.02-.08-.01-.25-.03 0-.04-.59.05 0-.01-.24-.03 0-.02-.92.02-1.24.18-3.84 0-.78-.06-.15 0-.09.06-.19.14-.16.13-.06.35-.06-.05-1.53.89.08.01-.03 1.09.08 1.4.06 1.22 0 .71-.07.78-.2.75-.33.38-.22.37-.26.61-.54.5-.59.42-.67-.59-.37-.2-.03-.19 0-.71-19.3-1.68.06-.43-12.28 9.31-.33-.31-8.73-.03-.47-.24-9.85 1.37-.72-.34-8.77-.55.02-.14-3.11 2.91-.13-.16-3.33-.03-.21-.17-.58-.14.05-3.98-12.85.06-.1-.84-2.72-1.35.41-.28-.91-1.34.37-.89.22-.95.19-1.04.14-1.11.1-5.88.27-.04-.87.01-.73.23-3.05.1-3.61.12-.07 0-.12.38 0 0-1.11-.97 0-3.14-.1-.73-.08-.58-.1-11.77-2.68-.17.75.07.02-.68 2.95-.49 2.5-.27 1.95-.24 1.94-1.62-.35-.26-.11-.43-.28-.3-.12-.97-.23-.38-.13-.74-.17-.2.85-.52 1.54-2.01 1.02-.32.29-.24.36-1.99-.73.1-.2-1.44-1.19-.12-.19-.05-.22.04-.21.13-.3-4.95-5.56-3.23 4.6-18.16 25.84-10.74 15.38z" /><path d="m199.53 334.8l.05 1.53-.35.06-.13.06-.14.16-.06.19 0 .09.06.15 0 .78-.18 3.84-.02 1.24.02.92.03 0 .01.24-.05 0 .04.59.03 0 .01.25.02.08.6 5.85.21 1.81.34 2.59.21 1.33.13.62.19.68.24.66.32.68.41.7.5.67.52.57.48.45.55.4.66.39.74.35.7.26.58.14.76.12.77.06.84 0 .61-.06.02-.02.02.05.02-.01 0-.03 1.03-.14 0-.02.09-.02.01.03.33-.05-.01-.03.42-.06.01.03.25-.04 2.58-.38 0-.2.08-.21.09-.14.35-.23.3-.11 10.31-1.58.22.92.2-.03-.11-.51 3.74-.33 4.67-.51.04-.07.08-.61 0-.27-.09-1.48.02-1.14.06-1.02.22-2.48.16-1.36.08-1.15-.09-.85-.25-1.19.01-.16-.1-.39 4.14-1.07.65-.12.47-.02 5.8-.01.48-.04.33-.06.36-.11.41-.17 3.95-2.11 4.62-2.52.63-.22 8.38-2.1.4-.07 12.03-1.07 4.41-.35 3.45-2.99 2.36-2.01.13.17 0 .03.04.01.15.17-.75.65.05.06.01.19.05.1.09.07.17.02.11.11.21-.19.11.13.17-.15.42.5-.02.23-.1.01-.06.07-.02.46.02.07.72.86.09.03.72.03.4-.33.32.38-.32.3-.04.06-.03.33-.08.07.2.3.22.24.57.44.35.23.2.12.39.12.74.07.12-.64.36.1.57.12.96.12.62.04 2.22 0 .02-.47.82-14.42.34-7.93-.24-5.73-.02-1.92.03-.45.1-.51.11-.43.31-.85-.03-.62.01-1.41-.07-1.72-.26-3.19-.4-5.65.01-1.5.2-8.48.35-1.18.91-1.14-2.47-1.92-4.3-3.33-.38-.23-.43-.19-.44-.13-.47-.07-2.23-.01-.27-.03-.26-.06-.3-.13-.37-.21-3.28 1.62-4.43 2.07-2.48 1.2-.16-.32-.06.03-.38-.83-.99.48.33.72.06-.02.12.05.04.08.08-.01.04.09-.23.09.05.11-.71.3-.03-.13-.06-.03-.09-.19.02-.07-.16-.36-.52.23-.17-.24-.69.35-.11-.19-.5-.17-.15.25-.13.17-.17.1-.17.02-.16-.02-.49-.36-.95-.43-.47-.05-.31-.01-.22-.12-.18-.05-.13-.13-.36.16-.05.44-.08.18-.14.08-.26.13-.19.05-.52-.03-.59.4-1.23.65-.61.25-.58.19-.16.04-.67 0-.36-.76-.25.11.47 1.05-.38.18-.13-.3-2.61 1.16-.24-.5-2.88 1.36-1.08.48-2.8 1.13-2.13.9.01.67-.23.42-.58-.1-.03-.03-.1-.55-.08.02-3.91 1.65-1.07.42-.02-.03-2.02.89-.02-.04-.96.42.02.06-4.42 2-1.9.82-8.48 3.83-2.15-.36.4-2.4.95-2.11-1.99-.92-.61-.23-.16-.02-.32.1-.88.33-.36.19-.43.1-.43.04-.62-.05-3.55.13-1.19 0-2.55.09.31 8.73-9.31.33.43 12.28 1.68-.06.71 19.3.19 0 .2.03.59.37-.42.67-.5.59-.61.54-.37.26-.38.22-.75.33-.78.2-.71.07-1.22 0-1.4-.06-1.09-.08-.01.03-.89-.08z" /><path d="m146.14 405.31l1.35 1.74.99 1.67.68 1.48 1.91-.08.33-.01.08-.01.04-.02.02-.02.12-.16.13-.21.07-.09.11-.09.11-.07.18-.03.13-.02.88-.03 1.52 0 2.09-.02 1.09 0 4.64-.04 1.54-.11.75-.28.15-.07.46-.2.47-.18.12-.03.85-.16.89-.18 1.24-.24 4.41-.84 2.56-.5 2.73-.51 2.7-.53 1.96-.38 1.7-.36 2.38-.52 1.45-.31 6.31-1.35.34-.06 0-.68.48-.06-.07-1.98-.42-3.77 2.04-1.52.14-.09.1-.05.23-.09.64-.2.29-.08.95-.33 1.12-.37 2.58-.82.8-.25.98-.34 1.5.97 1.38.9 2.48-.72 2.19-.61.47-.12.13-.09.03-.02.02-.04.06-.31.59-1.39.06-.06.05-.01.94.01 2.25.09 4.73.17 7.51.17 2.18.02.18.87.33 1.43.16 0 .15.65.17.66.11.53.11.76.04.41.14 2.95 0 .82.32 21.93.52-.03.01.74.41.02.03.51 1.91-.11.01-.74.02-.13.02-.07.03-.05.04-.04.22-.07.18-.02 10.55-.59 14.5-.77 19.91-1.1 9.44-.51 16.84-.97 6.81-.39.97-.05.43-.03 2.05-.19.56-.03.22.01.49.04.63-.02 1.95-.1-.48-.48-.4-.51-.36-.6-.69-1.63-.22-.63-.28-1.21-.11-.89.05-.45.11-.5 1.1-3.16 1.24-4.02.23-.81.23-1.19.37-1.54.29-1.05.29-.81.38-.9 1.09-2.01.88-1.48 1.1-2.16.29-.79.23-.81.09-.73-.02-.87-.17-.98-.34-1.44-.93-3.07-.05-.43 0-.72.07-.72.2-.58.28-.59-3.02-2.29-1.24 1.53-.15.16-.13.02-.76-.71-.31-.54-.11-.04-.14-.14-2.27-1.64-.62-.36-.6-.22-.39-.09-.28-.03-.29-.01-.71.06-.34.09-.31.11-.3.16-.63.39-.09.02-.08-.02-.07-.06-.82-1.39.13-.71.01-.42-.08-.44-.12-.32-.2-.33-.26-.3-1.27-1.14-.79-.67-3.23-2.44.21-.41.13-.19 2.88-3.64.3-.49.23-.6.09-.56.64-14.28.05-.49 0-.54-.05-.61-.14-.52-.12-.29-.16-.29-2.9-4.6-.2-.37-.28-.63-.23-.79-11-.66-.02.47-2.22 0-.62-.04-.96-.12-.57-.12-.36-.1-.12.64-.74-.07-.39-.12-.2-.12-.35-.23-.57-.44-.22-.24-.2-.3.08-.07.03-.33.04-.06.32-.3-.32-.38-.4.33-.72-.03-.09-.03-.72-.86-.02-.07.02-.46.06-.07.1-.01.02-.23-.42-.5-.17.15-.11-.13-.21.19-.11-.11-.17-.02-.09-.07-.05-.1-.01-.19-.05-.06.75-.65-.15-.17-.04-.01 0-.03-.13-.17-2.36 2.01-3.45 2.99-4.41.35-12.03 1.07-.4.07-8.38 2.1-.63.22-4.62 2.52-3.95 2.11-.41.17-.36.11-.33.06-.48.04-5.8.01-.47.02-.65.12-4.14 1.07.1.39-.01.16.25 1.19.09.85-.08 1.15-.16 1.36-.22 2.48-.06 1.02-.02 1.14.09 1.48 0 .27-.08.61-.04.07-4.67.51-3.74.33.11.51-.2.03-.22-.92-10.31 1.58-.3.11-.35.23-.09.14-.08.21 0 .2-2.58.38.18 1.64.31 2.86-.04 2.25-1.74 7.86-17.27 10.04-6.14 1.89-29.82 1.42-10.32 13.86-.44.55z" /><path d="m296.96 337.65l11 .66.23.79.28.63.2.37 2.9 4.6.16.29.12.29.14.52.05.61 0 .54-.05.49-.64 14.28-.09.56-.23.6-.3.49-2.88 3.64-.13.19-.21.41 3.23 2.44.79.67 1.27 1.14.26.3.2.33.12.32.08.44-.01.42-.13.71.82 1.39.07.06.08.02.09-.02.63-.39.3-.16.31-.11.34-.09.71-.06.29.01.28.03.39.09.6.22.62.36 2.27 1.64.14.14.11.04.31.54.76.71.13-.02.15-.16 1.24-1.53 3.02 2.29.18-.32.3-.38.31-.33.38-.3.38-.24.37-.18.42-.18.82-.27.88-.19 1.24-.1 2.31.2.63-.01.83-.07 1.55-.22.86-.21.7-.35.63-.47.49-.56 1.03-1.42.63-.95.49-.84.83-1.49.38-.76.29-.51.3-.67.26-.78.08-.36.12-.73.06-.89.53-4.4.1-.37.15-.38.22-.35.16-.18.57-.58.46-.38 2.85-1.84 1.76-1.27 1.41-.64 1.01-.39 1.38-.58.47-.22 1.33-.82 1.24-1.13.88-.9.96-1.12.7-1.33.64-1.47.39-.96.2-.95.02-1.04-.13-1.01-.2-.76-2.35-4.43-1-2.97-.4-1.61-.33-2.2-1.16-5.71-1.13-2.79-4.72-11.68-4.38-7.23-4.21-7.13-1.18-2.81-2.83-9.3-.62-1.66-1.39.63-5.12 1.78-5.35 1.94-.52.2-.55.17-.55.14-.55.1-.49.06-4.15-.3-11.79-.86-.5-.08-.49-.12-.5-.16-.46-.18-.45-.21-.46-.25-.45-.3-.35-.27-.73-.67-.66-.75-.53-.75-.28-.52-.27-.43-.52-.67-.61-.64-.67-.55-.91 1.14-.35 1.18-.2 8.48-.01 1.5.4 5.65.26 3.19.07 1.72-.01 1.41.03.62-.31.85-.11.43-.1.51-.03.45.02 1.92.24 5.73-.34 7.93-.82 14.42z" /><path d="m284.81 130.37l7.23 8.25 8.96 10.53 5.11 5.76 1.5 2.07 1.29 2.3 1.06 2.66.8 2.78 2.75 12.12 1.45 6.39.54 2.02.88 2.56 1.22 2.74 1.28 2.2 1.39 2.12 1.73 2.25 1.86 1.98 2.02 1.78 1.85 1.47 2.44 1.51 2.25 1.23 2.36 1.06 2.61.87 1.18.33.9.21.28.07 2.43.43 2.36.04 4.23-.32.91-.07 14.37-2.63 5.2-1.1 5.74-1.22 19.06-4.27 19.37-1.87 21.65-.54 6.3-.42-.71-26.33-1.97-5.25-25.64-11.64-.26-.04-.26.04-6.97 4.26-1.23.76-.7.37-1.02.44-.9.3-1.39.33-.53.06-.56 0-.57-.07-20.4-7.61.61-1.3-2.33-4.24-.55-1.39-1.2-3.21-.84-2.13-1.04-2.44-.25.24-.2.13-1.38-1.85-3.47-2.07-.22-.1-1.46-.62-.67-.21-2.97-1.19-6.41-1.65.07.79.13.6-.01 0 .11.77-1.85.52-.55-.05-.25.05-.16 0-.29-.06-.28-.11-.13-.02-5.72.33-.77-.16-1.17-.18-.78-.09-1.18-.06-.12-.27-.22-.2-.98-.53-9.61-5.63-.22-.18-.2-.21-1.55-1.97-1.84-1.89-.63.99-2.74 5.45-1.14 2.81-.16.23-12.64-9.36-1.54-1.01-.95-.67-.55-1.08-.13-.34-.12-.5-.46-4.37-.12-.58-.21-.63-.26-.53-.3-.48-.22-.28-2.08 5.16-.85 1.36-5.78-4.28-.97 1.35-5.78 7.9-3.02 4.28-2.85 4.25z" /><path d="m337.52 283.21l.62 1.66 2.83 9.3 1.18 2.81 4.21 7.13 4.38 7.23 4.72 11.68 6.93-5.35 2.36-1.83 11.15-8.66 11.57-9 2.83-2.3 3.59-2.74 7.4-2.92 7.44-2.79.87-.21.27-.41.63-.19-.28-.18.03-.05-.14-.14-1.15-.75-1.71-1.19-1.49-1.06-.39-.34-.26.05-.07.08-.36-.25.06-.12-.02-.08-1.35-1.23-.27-.26-.59-.65-.34-.43-.46-.52-.51-.63-.86-1.28-.34-.64-.21-.3-.54-.95-.25-.07-.12-.25-.06.03-.45-1.02-.22-.53.04 0-.04-.09.02-.11.09-.1-.02-.12-.47-1.09-.37-1.27-.05-.1-.11-.37-.46-1.98-.02-.33-.17-1.19-.12.01-.08-.02-.08-.09-.02-.11-.08.02-.07-.78.07-.01 0-.11.04-.09.14-.06-.12-1.05-.09-1.36-.01-1.14.06-.27-.1-.01.11-1.25.07.01.19-1 .6-1.99.05-.12.02.01.05-.34-.03-.07-.16-.1.76-2.29-1.13.04-9.03.49-.43.06-.4.11-.33.14-.3.16-.27.19-.27.23-2.17 2.25-1.79 1.57-5.33 5.55-.24.27-.29.26-.32.2-.34.16-.62.17-.84.19-1.58.26-.39.14-.36.18-.37.26-.35.31-1.47 2.16-.34.36-.36.31-.61.4-.65.29-.71.19-.71.07-2.38.22-.39.09-.52.15-.49.19-1.54.74-2.29 1.12-2.62.57-2.36.46-.34.11-.3.15-.26.21-.18.19-.18.26-.25.29-.54.49-.6.37-.67.28-.66.16-.7.04-.65-.05-.71-.17-.5-.02-.54.08-.53.2-.77.35-.42.26-.3.23-.29.26-.29.3-.59.8-.39.47-.61.57-.3.22-.73.44-.43.19-1.79.6-1.16.52z" /><path d="m348.77 207.78l1.48 8.22 1.83.16.27 1.43-.1.27-.3.05.2 1.09.23-.04.02.08.07.03.62-.07.72-.04 1.28 0 .57.04 1.24.17.88.18 13.39 3.18 1.67.35.03-.12.04.01.02-.06.61.13-.04.19 3.34.74 1.07.31 1.19.44.48.2 7.74 3.81.47.21 1.44.59 1.92.69 1.01.45.76.41.81.52.75.55.68.6.58.58.72.84.52.69.31.61.17.09.17-.02.33.64-.14.13-.03.06.01.12.43.7.29.81.35 1.35.04.63.08.13.08.04.1-.01.01.07.03-.01.16.94-.03 0-.12.15.06 1.15.09.53-.07 1.82-.13 1.21-.26 1.35-.21.74-1.02 3.04.05.01-.01.1.04.13.15.11-1.25 3.66 1.13-.04-.76 2.29.16.1.03.07-.05.34-.02-.01-.05.12-.6 1.99-.19 1-.07-.01-.11 1.25.1.01-.06.27.01 1.14.09 1.36.12 1.05-.14.06-.04.09 0 .11-.07.01.07.78.08-.02.02.11.08.09.08.02.12-.01.17 1.19.02.33.46 1.98.11.37.05.1.37 1.27.47 1.09.02.12-.09.1-.02.11.04.09-.04 0 .22.53.45 1.02.06-.03.12.25.25.07.54.95.21.3.34.64.86 1.28.51.63.46.52.34.43.59.65.27.26 1.35 1.23.02.08-.06.12.36.25.07-.08.26-.05.39.34 1.49 1.06 1.71 1.19 1.15.75.14.14-.03.05.28.18.81-.2 5.86-2.31.53-.1.54-.05.46 0 7.85.33 18.37.79 9.23.26 3.22-.18.44-.13.43-.18.33-.26.21-.26.56-.82 4.05-3.37-8.99-21.02-1.43-8.24-1.02-4.29.16-.97.07-.97 0-.97-.08-.98-4.45-25.1-6.28-21.94-6.3.42-21.65.54-19.37 1.87-19.06 4.27-5.74 1.22-5.2 1.1-14.37 2.63-.91.07z" /><path d="m326.98 379.38l-.28.59-.2.58-.07.72 0 .72.05.43.93 3.07.34 1.44.17.98.02.87-.09.73-.23.81-.29.79-1.1 2.16-.88 1.48-1.09 2.01-.38.9-.29.81-.29 1.05-.37 1.54-.23 1.19-.23.81-1.24 4.02-1.1 3.16-.11.5-.05.45.11.89.28 1.21.22.63.69 1.63.36.6.4.51.48.48.27.35 1.68 1.49 2.55.85 2.38.28 1.89-.05 1.61-.1 1.51.1 1.1.26.99.42.99.63 2.54 1.75 1.38.87 1.84.86 5.22 2.18 2.73 2.38.03.03.24 2.06 3.16-.15.2-.03.23-.01.81.02.92-.01.75 0 .69.02.16-.01.28 0 .49-.94.84-1.59.7-1.3.31-.67.12-.31 1.57-3.14-1.61-1.02-1.34-.86-.64-.4-.19-.15-.12-.1-.05-.15.01-.16-.13-.12-.37-.21-2.47-1.46-.97-.52-.06-.01-.1-.09.06-.26.15-.33.26-.69.34-.88.42-1.18.04-.22.02-.05-.29-.4-1.02-1.05-.61-.56-.41-.35 1.33-1.66.33-.32.41-.24.66-.18 1.18-.21 1.5-.44 2.38-.73-.71-5.6-.07-.59-.95-7.73-.42-3.42-.53-4.22.74-.15.6-.13.61-.15.8-.25.86-.33 1.31-.59 3.82-1.73 2.6-1.34 2.52-1.33.77-.4 1.72-.74 2.86-1.54 1.92-1.22-.26-.47.37-.42.39-.49.19-.26.21-.31.22-.36.16-.28.28-.56.24-.55.22-.61.17-.58.16-.79.09-.65.05-.53 0-1.13-.02-.64 1.78.1.52.05.95 0 .59-.04.63.03 2.55-1.54-.4-.67 3.78-2.24 9.39 2.57 3.43.93 3.12-.15 2.06 3.29 1.81-1.06.8-.5.28-.2.17-.14.51-.54.4-.19.38-.08.7-.34.45-.29.81-.36.3-.11.32-.06.63-.05.91.02 2.98.18-.03-1.83-.02-.46 0-.88 3.09-.74.8-.31.68-.18-.11-.1.38-.19.03-.01.12-.09.52-.3 1.77-.95.47-.25.62-.31.92-.47.22-.11 1.12-.58.45-.25.25-.11.32-.06.77-.33 1.18-.5.94-.43.49-.3.17-.09.06 0 .91-.44.58-.31.44-.2-.05-.11.11-.11.62-.35-.37-.71 1.9-1.29 2.86-2.26 1.07-.96 1.45-1.65 1.67-2.55 2.46-4.61 3.31-5.77.94-1.74 2.28-3.64 3.45-5.88.37-1.05.1-.84 3.05-5.18 2.45-5.57 5.09-10.69 1.79-5.21.55 1.12.42.79.03-.09.06-.07.17-.11.36-.17.19-.13.25-.15.27-.15.41-.28.84-.58.67-.43.42-.29.35-.19.51-.25.93-.61.3-.25.14-.13.39-.35.22-.18.38-.35.27-.28-.05-.28-.42-.11.03-.11.08.02.46-1.71.24-.96-6.52-1.82-5.08-1.88-5.06-3.19-2.28-2.64-4.05 3.37-.56.82-.21.26-.33.26-.43.18-.44.13-3.22.18-9.23-.26-18.37-.79-7.85-.33-.46 0-.54.05-.53.1-5.86 2.31-.81.2-.63.19-.27.41-.87.21-7.44 2.79-7.4 2.92-3.59 2.74-2.83 2.3-11.57 9-11.15 8.66-2.36 1.83-6.93 5.35 1.13 2.79 1.16 5.71.33 2.2.4 1.61 1 2.97 2.35 4.43.2.76.13 1.01-.02 1.04-.2.95-.39.96-.64 1.47-.7 1.33-.96 1.12-.88.9-1.24 1.13-1.33.82-.47.22-1.38.58-1.01.39-1.41.64-1.76 1.27-2.85 1.84-.46.38-.57.58-.16.18-.22.35-.15.38-.1.37-.53 4.4-.06.89-.12.73-.08.36-.26.78-.3.67-.29.51-.38.76-.83 1.49-.49.84-.63.95-1.03 1.42-.49.56-.63.47-.7.35-.86.21-1.55.22-.83.07-.63.01-2.31-.2-1.24.1-.88.19-.82.27-.42.18-.37.18-.38.24-.38.3-.31.33-.3.38-.18.32z" /><path d="m441.37 195.66l6.28 21.94 4.45 25.1.08.98 0 .97-.07.97-.16.97 1.02 4.29 1.43 8.24 8.99 21.02 2.28 2.64 5.06 3.19 5.08 1.88 6.52 1.82-.24.96 1.33.36.06-.21.25.07.22.06-.07.19 1.59.47.9.31 1.52.61.68.3.7.36.88.46.62.37.94.58.63.42.77.56.71.56 1.65 1.35 1.13.94 2.37 1.94 12.88 10.62 4.06 3.33 7.56 6.22 4.86 3.99 1.83 1.51 1.89 1.54 4.81 3.98.2.13.26.13.19.12.25.18.43.36.81.67 1.48 1.24 3.41 2.8 2.79 2.31.49.4 1.81 1.3.59.49.49-.7.1-.12.24-.26.21-.21.19-.16.19-.15.13-.09.27-.19.27-.17.21-.12.24-.12.24-.11.25-.11.34-.12.25-.07.41-.14.62-.19.42-.12.31-.08.45-.1.3-.07.6-.11.46-.07 2.6-.36.36-.07.39-.06.29-.02.37-.01.24.01.35.03.48.06.41.07.47.1.43.1.52.14.52.2.53.19.52.18.83.27.41.13.34.09.35.1.51.16.5.18.33.12.26.12.16.05.27.07.27.05.18.02.17.01.17 0 .16-.01.2-.02.11-.02.16-.03.18-.04.5-.16.2-.07.21-.09.18-.08.22-.11.18-.11.2-.12 1.01-.72.35-.26.32-.25.32-.27.33-.28.56-.51.26-.24.26-.26.25-.27.32-.37.24-.29.3-.39.29-.4.15-.23.1-.17.17-.32.14-.3.09-.24.11-.33.02-.09-.08-.02.13-.46.04.01.09-.36.03-.14.01-1.2 7.41-14.77 9.47-4.5 41.33-19.62-.31-4.59-1.67-22.74-2.18-33.29-1.03-14.83-51.03 21.67-29.13 5.28-5.56 1.01-5.08.61-5.73.1-5.49-.33-5.28-.9-5.6-1.51-5.26-2.05-4.68-2.26-5.37-3.29-5.39-4.14-16-13.16-8.43-6.92-6.58-5.4-4.9-5.15-2.18-1.54-2.17-1.51-2.8-1.3-3.79-.54-5.46.28-4.04.27z" /><path d="m390.38 91.63l-.72-1.19-.06-.51-.11-.02-.18-.1-.19-.12-.18-.15-.08-.04-.16-.12-.05-.03-.08-.03-.05-.05-.05-.05-.05-.04-.13-.06-.2-.14-.15-.07-.05-.04-.1-.09-.25-.13-.17-.11-.15-.13-.21-.14-.09-.08-.19-.1-.2-.14-.25-.17-.14-.1-.18-.17-.12-.08-.15-.12-.08-.05-.13-.1-.07-.05-.21-.15-.13-.11-.26-.15-.13-.1-.09-.06-.07-.03-.07-.04-.15-.12-.23-.16-.09-.08-.07-.04-.6-.36-.28-.23-.22-.16-.11-.07-.06-.05-.19-.11-.22-.16-.19-.12-.2-.14-.17-.1-.21-.16-.24-.15-.1-.08-.17-.12-.16-.13-.31-.2-.38-.27-.13-.11-.15-.1-.23-.16-.28-.19-.13-.1-.09-.06-.1-.04-.34-.21-.1-.08-.06-.12-.66-.47-.23-.23-1.53-1.14-2.14-1.58-3.16-1.96-.07-.04-.21-.18-.5-.34-.25-.2-.14-.09-.12-.09-.08-.06-.2-.12-.23-.13-.07-.05-.19-.15-.1-.07-.21-.12-.27-.18-.1-.08-.11-.13-.05-.08-.03-.04-.09-.12-.04-.07-.06-.08-.02-.02-.03-.01-.11 0-.14-.03-.02-.03-.02-.1-.03-.05-.17-.16-.04-.01-.35.01-.01-.02-.09-.04-.23-.17-.36-.21-.18-.12-.06-.03-.1-.03-.06-.03-.13-.08-.13-.07-.2-.15-.29-.19-.17-.12-.42-.28-.16-.1-.34-.24-.15-.09-.25-.18-.19-.1-.52-.35-.18-.15-.14-.09-.32-.23-.22-.12-.23-.17-.15-.09-.16-.11-.21-.13-.32-.23-.19-.12-.16-.12-.17-.12-.23-.14-.14-.09-.17-.1-.24-.17-.13-.08-.39-.27-.16-.09-.23-.16-.19-.12-.23-.18-.35-.24-.09-.05-.19-.1-.12-.07-.17-.12-.13-.07-.19-.13-.09-.07-.18-.13-.13-.09-.1-.05-.06-.02-.21-.07-.16-.03-.09-.01-.15 0-.42-.06-.42-.04-.18-.04-.4-.05-.1-.03-.11.64-.03-.01-.04.01-.08.04-.06-.02-.06 0-1.07.03-.25-.12-.29-.17-.31-.16-.16-.09-.12-.08-.02-.01-.3-.19-.31-.18-.32-.17-.58-.34-2.4-1.43-.84-.51-1.06-.66-.8-.54-1.02-.71-1.22-.82-.85-.63-1.26-.92-.25-.11-1.35-.43.14-.51.06-.23.04-.17-1.05-.34-.19-.08-.51-.36-.85-.63-1.02-.72-.34-.26-.77-.6-.13-.12-.07-.04-.44-.33-.08-.08-.07-.03-.05-.04-.1-.06-.43-.27-.08-.06-.15-.11-.24-.16-.26-.19-.16-.09-.11-.09-.47-.29-.2-.15-.62-.39-.09-.07-.45-.3-.4-.25-.46-.28-.21-.15-.72-.39-.18-.12-.57-.32-.13-.08-.07-.03-.32-.19-.43-.22-.21-.1-.16-.09-.12-.06-.18-.1-.14-.06-.09-.05-.29-.16-.37-.19-.95-.46-.32-.13-.14-.07-.31-.14-.07-.04-.14-.06-.15-.08-.17-.07-.12-.06-.17-.07-.53-.26-.11-.04-.34-.17-.12-.04-.1-.05-.37-.16-.27-.1-.09-.05-.12-.03-.19-.1-.21-.08-.11-.05-.1-.02-.18-.06-.3-.14-.62-.19-.16-.05-.6-.19 0 .1-.64-.18-.15-.02.04-.22-.08.02-.05 0-.08-.02-.51-.15-.28-.09-.51-.15-.4-.13-.26-.07-.14-.05-.52-.12-.62-.23-.31-.05-.43-.12-.26-.03-.2-.05-.2-.04-.19-.04-.16-.05-.19-.05-.21-.07-.35-.06-.52-.12-.33-.04-.42-.1-.23-.04-.19-.04-.2-.04-.25-.03-.21-.05-.11-.02-.55-.11-.45-.06-.64-.1-.36-.07-.21-.02-.1-.03-.15-.03-.21-.02-.25-.02-.37-.07-.41-.05-.66-.11-.5-.08-.36-.02-.19-.02-.24 0-.29-.04-.62-.09-.17-.03-.14 0-.17-.03-.28-.03-1.07-.09-.4-.02-.22-.03-.36-.01-.74-.06-.35-.02-.56-.02-.46.01-.81.02-.43.01-.39.03-.34.02-.65.05-.32.01-1.29.18.02.03-.3.02-.88.03-.39.01-.17 0-.42-.07-.35-.01-.51-.01-.69-.03-.16 0-.44.01-.77.02-.33.02-.72.05-.36.03-.51.02-.34.05-.6.06-.7.1-.33.04-.33.06-.24.03-.51.03-.14.02-.02 0-.01-.01-.33-.47-.24-.3-.2-.21-.13-.13-.17-.14-.1-.08-.08-.06-.13-.07-.23-.1-.11-.04-.26-.07-.37-.08-.13-.02-.14-.01-.17.01-.21.04-.27.09-.57.24-.1.03-.73.29-.32.11-.16.06-.1.03-.32.09-.14.03-.18.04-.36.07-.34.06-.82.13-.5.04-.33 0-.3-.01-.29-.01-.43-.03-.32-.04-.64-.12-.81-.18-.32-.09-.44-.14-.45-.17-.28-.12-.43-.2-.31-.15-.44-.23-.17-.1-.14-.08-.23-.14.08-.02-.17-.11-.68-.46-.61-.52-.57-.57-.54-.6-.54-.65-1.19-1.66-.58-.76-.58-.83-.24.03-.67-1.97-.42-1.17-.28-.79-.26-.86-.1-.33-.07-.21-.07-.15-.2-.2-.28-.03-.17-.01-.23.02-.28.03-.17.02-.15-.23-.07 0-.21-.25-.24-.24-.24-.21-.26-.2-.28-.19-.57-.31-.28-.13-.36-.12-.31-.1-.3-.06-.74-.2-.5-.73-.26.1-.05.03-.11.11-.59.72-.07.08-.09.17-.09.08-.13.11-.12.05-.15.06-.09.08-.08.14-.07.26-.07.12-.05.07-.14.14-.09.09-.5-.51-1.07-1.12-.11-.1-.11-.09-.38-.19-.85-.36-.39-.15-.58-.2-.33-.07-.57-.1-.42-.08-.47-.08-.3-.05-.3-.05-.29-.03-.08-.01-.24.01-.4.03-.38.04-.1.01-.49-.07-.06.01-.18.05-.31.08-.32.1-.05.02-.35.19-.29.08-.06.01-.13-.01-.07.02-.28-.03-.05.02-.13.08-.11.04-1.48.54-.03.4-.42.17-.09.02-.23.1-2.2.86-.38.11.31 1.15-.23.09.08.33.03.24.01.23-.01.23-.06.43-.07.34-.1.32-.12.35-.11.28-.12.25-.13.21-2.4 3.53-.82 1.23-.69 1.06-4.64 6.98-.31.48-.21.38-.07.16-.07.14-.12.34-.15.47-.05.2-.05.25-.08.5-.04.34-.03.32 0 .35.02.37.03.34.05.31.05.25.1.36.08.23.1.27.12.27.39.84.66 1.31 2.34 4.67.43.86.14.33.2.54.11.5.08.75.02.48-.02.49-.07.49-.16.75-.24.8-.16.36-.18.34-1.5 2.37-5.74 9.08-.78 1.25 11.58 4.87 6.76 3.77 7.28 5 8.84 7.95 5.84 6.5 20.93 23.4 2.85-4.25 3.02-4.28 5.78-7.9.97-1.35 5.78 4.28.85-1.36 2.08-5.16.22.28.3.48.26.53.21.63.12.58.46 4.37.12.5.13.34.55 1.08.95.67 1.54 1.01 12.64 9.36.16-.23 1.14-2.81 2.74-5.45.63-.99 1.84 1.89 1.55 1.97.2.21.22.18 9.61 5.63.98.53.22.2.12.27 1.18.06.78.09 1.17.18.77.16 5.72-.33.13.02.28.11.29.06.16 0 .25-.05.55.05 1.85-.52-.11-.77.01 0-.13-.6-.07-.79 6.41 1.65 2.97 1.19.67.21 1.46.62.22.1 3.47 2.07 1.38 1.85.2-.13.25-.24.27-.37.2-.41.37-1.8.2-1.57.2-1.17.33-1.56 1.45-3.68 2.42-7.68.29-3.36-.1-4.16.17-1.13.32-1.09.39-.97.34-.72 2.33-3.57.8-1.09 2.09-2.18.76-1.58 1-2.3.93-1.71.41-.61.3-.45.34-.42.37-.39.4-.36.43-.32.46-.29z" /><path d="m372.91 136.57l1.04 2.44.84 2.13 1.2 3.21.55 1.39 2.33 4.24-.61 1.3 20.4 7.61.57.07.56 0 .53-.06 1.39-.33.9-.3 1.02-.44.7-.37 1.23-.76 6.97-4.26.26-.04.26.04 25.64 11.64 1.97 5.25.71 26.33 4.04-.27 5.46-.28 3.79.54 2.8 1.3 2.17 1.51 2.18 1.54 4.9 5.15 6.58 5.4 8.43 6.92 16 13.16 5.39 4.14 5.37 3.29 4.68 2.26 5.26 2.05 5.6 1.51 5.28.9 5.49.33 5.73-.1 5.08-.61 5.56-1.01 29.13-5.28 51.03-21.67 5.67-3.16 26.37-14.51 32.3-17.81 26.36-15.2-13.49-91.03-9.84-6.93-3.73-2.56-.75-.02-1.43-.56-3.34-1.34-.89-.37-1.27 1.1-.97.72-1.51 1.22-1.08.66-1.4.35-1.03-.01-9.65-1.01-5.86 2.22-5.65 1.73-3.51 1.05-3.86.65-11.64-5.05-3.16-1.27-4.19-.82-2.95-.42-1.68-.69-2.85-1.21-1.12-.5-1.26-.39-.98-.2-.89 0-.51.1-.42.19-.6.53-.78.92-.7 2.34-1.27 1.81-2.13 1.54-5.35 2.45.08-2.04-.09-1.46-.1-.8-.27-1.35-.54-1.81-.51-1.28-1.26-2.85-.67-1.14-.77-.85-2.48-1.56-.77-.36-.93-.31-.97-.17-.98-.1-1.51.3-.28-.01-1.18-.09-1.63-.48-.79-.34-1.89-1.41-1-1.04-.73-.56-.21.08-.24.12-.27.16-.28.23-.41 1.05-.62 1.62-.38 1.03-.17.37-.16.22-.28.21-.57.3-.44.3-.9.66-.61.5-.9.65-.22.3-.11-.03-.03 0-.08.02-.13.07-.33.2-.87-.49-.02.02-.55-.32-1.93-1.01-.27-.14-.05-.04-.2-.11-.42-.2-.4-.23-.27-.15-.26-.14-.29-.15-.38-.2-.58-.34-.22-.12-.5-.23-.07-.07-.11-.04-.09-.02-.23-.11-.93-.5-.84-.46-.07-.03-.51-.34-.04-.04-.09-.05-.87-.47-.3-.17-.34-.17-.36-.2-.74-.41-.23-.11-.65-.38-.62-.34-1.23-.67-.29-.15-.28-.16-.96-.54-.36-.19-.38-.21-.15-.07-.07-.01-.08-.05-.41-.23-.62-.37-.37-.22-.29-.13-.09-.05-1-.54-.43-.25-.07-.05-.4-.21-.41-.23-.48-.25-.41-.21-.05-.03-1.28-.71-.15-.08-.45-.21-.54-.28-.99-.55-.36-.19-.06-.04-.11-.08-.24-.14-.25-.15-.25-.13-.24-.12-.1-.05-.93-.51-.82-.44-.95-.53-.38-.2-.66-.38-.59-.31-.7-.42-.3-.15-.39-.22-1.14-.64-.81-.45-.81-.44-.67-.37-.36-.2-.7-.4-.64-.34-.4-.23-.95-.37-.31-.13-.06.07-.3.04-.06 0-.68-.04-.07.01-.15-.01-.26 0-.54.08-.3.02-.62-.01-.52.02-3.51.05-3.08-.06-.03-.05-.29-.01-.14.11-.27-.01 0 .09-.1-.01-.08.03-.46.02-.49 0-.48.01-.13-.01-.05-.03-.4 0-.07.01-.1.02-.26.04-.59.05-.52.11-.24.03-.24-.02-.33-.03-.57-.03-.25 0-.25-.02-.36-.01-.3.02-.57.06-.34-.01-.33-.03-.31-.02-.18-.01-.25.01-.22.03-.05.02-.03.03-.03.03-.01.09-.52 0-.46-.02-.56 0-.42-.02.02-.19-.05-.01-.06-.05.02-.08-.04 0-.1.46-.07.43 0 .39.03.41.11.97.06.76-.02.22-.09.2-.35.59-.59.89-.75 1.28-.81 1.27-.18.24-.21.13-.38.08-1.27.01-.76-.01-.33.01-.18.14-.41.44-.85 1.01-1.23-1.61-1.81-2.46-2.46-3.39-.47-.62-1.59-2.15-2.73-3.72-.14.08-.27.19-.7.51-.58.44-.14.11-.38.26-.13.16-.08.07-.25.15-.24.15-.64.45-.14.09-.24.21-.67.52-.3.26-.58.39-.48.34-1.03.78-.26.24-.05.03-.1.1-.8.53-.48.34-.1.07-.22.22-.18.12-.19.15-.06.05-.18.12-.1.03-.15.12-.84.62-.25.15-.54.37-.25.25-.29.2-.73.53-.08.04-.12.11-.06.08-.14.13-.18.12-.28.19-.6.5-.23.12-.14.13-.24.14-.24.18-.3.2-.21.15-.71.53-.42.34-.57.43-.35.26-.12.08-.31.26-.15.1-.71.54-.25.18-.74.51-.19.17-.16.06-.19 0-.89.12-.43.04-.76.14-.38.02-.31.03-.95.05-.17.01-.1.03-.46.06-.43.1-1.44.05-.24.04-.11.01-.05.04-.21.05-.25.02-.32.01-.84.04-.41.04-.43.05-.42.04-.14 0-.83.1-.65.08-.26.02-.21.05-.23.02-.19-.01-.96.07-.87.05-.13.04-.2.02-.31.05-1.16.12-.44.06-.36.02-.1.06-1.2.09-.37.07-.33.05-1.49.11-.61.03-.67.09-.33.02-1.14.1-.27.01-.64.07-.08 0-.95.07-1.09.14-.21.01-.13.02-.85.09-1.22.13-.06.02-.38.05-1.05.07-.36.04-.79.06-.25.01-.51.05-.51.09-2.39.21-.33.02-.64.06-1.11.12-.78.07-.12.02-.1.02-.65.35-.2-1.76-.53.08-.35.07-.08.02-.09 0-.08-.01-.13-.03-.03.01-.06 0-.16-.01-.15.02-.4.07-.3.06-.21.05-.26.1-.12.03-.15.08-.07.04-.32.16-.05.03-.38.15-.19.03-.46.07-.26 0-.07-.01-.03 0-.03-.02-.07-.03-.05-.07-.05-.08-.12-.18-.11-.13-.21-.32-.1-.13-.21-.29-.09-.15-.12-.18-.18-.32-.26-.39-.06-.07-.18-.26-.01-.04-.02-.04-.04-.05-.1-.2-.09-.19-.07-.2-.16-.28-.07-.15-.05-.15-.23-.68.21-.16.2-.15.31-.2-.13-.21-.54.35-.9.53-.09.06-.34.2-.7.34-.11 0-.22.11-.06.05-.18.09.44.76-.06.03.11.27.12.38.11.64.04.42 0 .4-.23 1.56 0 .18-.07.06-1.67.16-2.04.19-.04-.09-.04-.05-.09-.08-.03-.01-.02 0-.06.03-.07.04-.96.65-.63.44-.62.45-.03.04-.1.09-.11.15-1.65-.46-.18.47-.49 1.83-.15.68-.14.58-.05.2-.12.48-.02.11-.09.35-.35 1.36-.33 1.32-.12.46-.02.1-.31 1.25-.03.11-.15.59-.07.3-.12.47-.03.12-.33 1.3-.19.81-.16.57-.03.16-.11.38-.08.32-.31 1.21-.06.27-.14.54-.27 1.11-.93 4.44-.25.94-.4 1.09-.47.98-.25.44-.68.95-.11.12-.2.17-.89.56-.66.37-.28.18-.46.23-.6.31-.19.1-.47.18-2.37.9-3.38 1.27-.32.11-.22.1-3.28 1.54-3.38 1.64-.77.35-.68.3-1.11.46-.31.11-.23.07-.06.01-.6.13-.49.11-2.46.42-1.08.17-1.31.17-1.6.23-.33.06-.53.1-.2.03-.57.18-.14.06-.18.09-.46.29-.43.32-.4.36-.37.39-.34.42-.3.45-.41.61-.93 1.71-1 2.3-.76 1.58-2.09 2.18-.8 1.09-2.33 3.57-.34.72-.39.97-.32 1.09-.17 1.13.1 4.16-.29 3.36-2.42 7.68-1.45 3.68-.33 1.56-.2 1.17-.2 1.57-.37 1.8-.2.41-.27.37z" /><path d="m420.4 425.75l-1.36.81 1.74 2.92-.01.21-.03.16-.12.36-.25 1.07-.26 1.24-.33 1.28-3.91 2.34.18.44 1.24 2.09.21.58.02 1.98-7.65 4.56 2.61 4.38-4.85 2.89-.31.36-.71.83-.72.81-1.36 1.58-.65.73-.87.97-.73.8-.44.46-1.58 1.58-.63.66-.8.76.54.56-.72.71-.77.67-.61 1.03 1.33 1.52-.21.21-.37.34-.49.48.94 1.11-.77.39 1.16 2.24.68 1.28.55.96 1.14 1.7 1 1.44.61.91 1.84 1.95.54.76 1.18 2.54 1.08 1.6 1.04 1.3 1.85 2.75-.15.09 2.7 4.35 2.37 4.08.22.41-.13.09 21.72 38.51.19.34-.11.07.47.77.34.53.54.83 1.61 2.65 1.38 2.24 1.06 1.74 1.63 2.65 6.21 10.11-.55.35 2.45 4.44.83 1.49 1.22 2.19 1.14 2.2 1.11 2.16 1.14 2.19.08.13 1.09-.44.23-.11 1.2-.58.39-.17.26-.08.11-.03.09-.01.47-.02.35 0 .34.01.43.04.34.04.22.04.16.04.14.05.39.2.69.4.15.08.15.06.16.07.25.07.14.02.15.01.14.01.19-.01 1.58-.13.3-.01.24.01.16.01.74.08.39.08.34.09.3.08.42.14.24.09.21-.39.21-.42.18-.48.25-.87.17-.69.17-.85.2-.78.18-.75.11-.4.13-.38.18-.51.11-.33.11-.26.06-.12.03-.06.05-.06.1-.1.16-.14.14-.06.24-.07.13-.03.18-.03 1.24-.07.3-.05.28-.07.27-.05.23-.06.34-.08.22-.06.09-.02.25-.02.17-.03.11-.01.11 0 .18.02.2.01.14.02.29.02.12.01.42-.03.11-.02.14-.03.17-.03.17-.05.41-.13.12-.05.05-.01.26-.11.22-.14.11-.08.1-.1.1-.12.1-.15.15-.27.23-.42.38-.51.02-.02.05 0 .03.01.02 0 .02.02.04.13.04.18.04.28.02.1.04.57.03.44.01.09.01.15.07.34.08.26.05.14.07.16.05.11.14.21.13.17.09.1.13.14.19.17.26.19.18.11.55.33.3.19.25.14.25.19.09.09.04.05.22-.08.17-.39.03-.05.05-.14.18-.38.24-.46.16-.33.07-.17.13-.37.09-.24.12-.27.13-.25.29-.48.06-.08.02-.04.09-.13.08-.08.1-.06.17-.14.08-.09.03-.06.02-.09 0-.05.01-.3.01-.16.01-.1.02-.09.04-.11.07-.17.16-.36.08-.17.02-.01.01-.06.03-.08.03-.09.07-.2.08-.19.05-.09.09-.23.07-.28.06-.28.06-.17.11-.24.06-.12.08-.14.04-.12.03-.13-.01-.14-.03-.21 0-.12.33-2.18.16-1.04.14-.96.01-.04.02-.03.04-.04.23-.13.14-.1.09-.14.06-.08.61-.66.93-.87.2-.2.24-.27.49-.46.36-.35.15-.14.35-.39.1-.12.27-.31.2-.23.11-.13-4.28-7.17-.6-.88-1.02-1.84-7.05-11.91-.46-1.02-.18-.4-.4-.51-4.39-7.33-.67-.9-1.12-2.05-3.36-5.35-1.37-2.26-.47-.83.09-.2-1.94-3.77-1.39-2.37-.6-.69-2.04-3.48-5.46-9.09-.82-1.31-.81-1.43-.16-.28-.63-.83-4.49-7.68-1.51-2.67-.91-1.32-10.1-15.95-3.24-5.42-5.56-9.32-.12-.53.05-.23-.54-.92-.23.02-1.5-2.22.02-.27-.08-.5-2.36-5.34-1.24-1.75-1.17-2.01-.5-.08-1.02-1.87.21-.38-.34-.61z" /><path d="m456.71 407.67l-3.45 2.07-.29.16-.03-.07-.1.06.04.07-2.74 1.64-.7.43-1.65.97-.71-1.2-3.76-6.31-2.15-3.59-.9-1.53-2.01-3.38-.87-1.46-1.28-2.16-6.44 3.83-2.02 1.22-4.28 2.55-2.94 1.75-.28.4-.09.12-.47.61-.28.32-.19.3-.06.07-.01-.02-.61.73-.17.22-.27.37-.1.22-.49.65-.4.56-.46.61-.13.21-.03.05-.07.05-.07.05-.07.02-.56.16-.19.04-.48.06-.2 1.32-.02.09-.2.7-.19.58-.05.2-.02.11.41.22.27.4.18.22.08.08.51.49.25.22.34.12.25.22.24.26.49.58.44.4.7.75.17.14.12.09.43.29.38.33.02.37.17 1.39.2 1.07.08.3.26.92.4 1.11.27.57.25.55.37.73.68 1.32-1.83 1.09.34.61-.21.38 1.02 1.87.5.08 1.17 2.01 1.24 1.75 2.36 5.34.08.5-.02.27 1.5 2.22.23-.02.54.92-.05.23.12.53 5.56 9.32 3.24 5.42 10.1 15.95.91 1.32 1.51 2.67 4.49 7.68.63.83.16.28 15.52-9.25 19.55-11.66-14.54-24.37-3.76-6.35-9.86-16.51-6.02-10.1z" /><path d="m456.71 407.67l6.02 10.1 9.86 16.51 3.76 6.35 14.54 24.37 15.89-9.48 18.94-11.28 1.98-1.24 1.96-1.27 2.09-1.41 2.29-1.61 2.11-1.56 2.33-1.79 2.29-1.83 1.8-1.51.89-.76 3.11-2.8-.27-.42-1.33-2.5-.29-.57-.14-.31-.23-.47-.2-.36-.3-.46-.32-.46-.24-.41-.25-.51-.27-.58-.57-1.3-.24-.51-.18-.37-.69-1.29-.27-.49-.21-.38-.1-.22-.08-.19-.04-.14-.08-.18-1.77-3.3-2.03-4.24-1.01-2.04-.14-.22-.18-.38-.63-1.43-.37-.96-.25-.77-.5-1.78-.34-1.17-.25-.81-.24-.74-.18-.5-.36-.74-.39-.68-.52-.85-.96-1.55-.77-1.2-.3-.42-.63-.75-.36-.38-.95-.82-1.44-1.17-.14-.1-.65-.53-.13-.11-.67-.59-.62-.67-.41-.49-1.1-1.22-.75-.74-1.24-1.18-.44-.4-.47-.37-.34-.22-.36-.19-.7-.28-1.14-.34-.65-.14-.72-.12-.61-.05-1.25-.1-1 .03-.93.02-1.14.16-.61.05-.39.01-.39-.07-1.6-.76-2.68-.15-.56-.03-.9-.27-1.75 1.92-1.76.02-.84.08-.73.12-.72.19-.62 2.14-.37 1.01-.67 1.37-1.03 1.56-1.31 1.6-2.73 2.83-.74.9-.94 1.89-.14.35-.16.34-.13.25-.12.2-.11.14-.18.22-.13.14-.15.16-.22.2-.51.44-.21.19-.33.3-1.47-1.22-.09-.1-.43-.45-.39-.39-.78-.71-3.02-2.72-7.66 4.57-3.36 1.97-3.24 1.97-7.64 4.56-1.72 1.04z" /><path d="m455.82 485.91l.81 1.43.82 1.31 5.46 9.09 2.04 3.48.6.69 1.39 2.37 1.94 3.77-.09.2.47.83 1.37 2.26 3.36 5.35 1.12 2.05.67.9 4.39 7.33.4.51.18.4.46 1.02 7.05 11.91 1.02 1.84.6.88 4.28 7.17.22-.25.01-.01.67-.73.31-.34.3-.32.21-.2.18-.16.24-.17.28-.18.04-.02.05-.01.1-.04.03-.02.04-.02.03-.03.03-.06.03-.14.04-.12.03-.05.01-.05.03-.08.04-.07.05-.09.08-.11.46-.38.18-.12.37-.28 1.06-1.12.94-.98.25-.26.05-.05.08-.13.14-.2.13-.16.2-.2.26-.24.1-.06.92-.61.7-.49.15-.13.11-.12.04-.04.03-.03.06-.07.28-.2.08-.06.24-.15.85-.68.12-.09.27-.2.85-.67.74-.56.96-.74.8-.61.16-.13.28-.18.16-.11.29-.18.23-.16.39-.27.44-.36.87-.67.53-.46.17-.13.35-.24.16-.12.19-.13.03-.02.35-.27.77-.58.33-.21.33-.16.18-.11.21-.18.04-.03.03-.03.42-.33.61-.42.26-.19.03-.02.14-.07.15-.09.13-.11.06-.05.04-.05.06-.06.28-.14.06-.04.02-.02.14-.1.11-.06.08-.07.1-.1.1-.08.18-.12.12-.07.04-.05.03-.05.05-.2.08-.25.06-.1.04-.06.04-.09.11-.18.09-.18.22-.48.25-.51.04-.06.2-.33.06-.14.85.14 1.47.27 1.27.21 2.05.3 1.16.18.3.06.85.12 1.13.18 1.63.21 1.05.16.58.07 1.59.24 1.58.21 1.65.14 3.26.42.59.05 1.02.11.7.09.98.11 2.01.15 1.14 0 2.65.17 1.68.09.61-.85.41-.62.32-.47.26-.38.14-.23.02-.03.04-.05.02-.02.11-.01.12 0 .05-.01.02-.04.02-.46.04-.48.03-.26.01-.07.02-.04.04-.09.16-.01.09.01.17.04.06 0 .03-.01.04-.02.04-.05.02-.04 0-.03.38-.56.5-.76 1.66-2.43.14-.21.21-.34.27-.39.41-.59.1-.13.03-.08.14-.19.11-.22.11-.13.2-.25.12-.19.07-.12.24-.34.22-.34.28-.39.17-.29.03-.14.01-.06.04-.07.26-.36.22-.27.19-.25.23-.27.06-.18.02-.3-.08-.48-.01-.36-.01-.07.01-.85-.02-1.27-.01-1.11-.01-.54-.02-.23.01-.18 0-.4-.02-.59 0-.36-.02-1.26-.02-.57 0-.59-.02-.53-.03-.34.01-.43-.01-.56.4-.14.14-.07.43-.25.2-.09.22-.05.24-.05.5-.01.14 0 .27.04.13.02.11.01.08-.04.08-.04.06-.05.04-.04.03-.08.01-.16-.02-.09.01-.52-.02-.26-.03-.45-.02-.37-.01-.3-.02-.25-.02-1.4-.03-.92.02-.14.33-.88.36-1.15.2-.67.18-.65.02-.12.05-.18.06-.31 3.2.33.88-1.7.76-1.48.34-.66.65-1.26 1.15-2.21.65-1.03.39-.77.17-.53.14-.63.02-.22.02-.14.06-.3.11-.29.18-.29.13-.1.29-.08.26-.05.3-.08.43-.13.28-.09.16-.06.51-.22.18-.09.36-.2.48-.31.32-.23.74-.56.27-.24.18-.19.19-.24.1-.14.3-.41.33-.49.24-.4.42-.77.09-.15.13-.19.19-.24.12-.15.68-.66.26-.21.38-.27.12-.07.49-.25.4-.17.23-.09.17-.05.21-.07.22-.05.44-.09.28-.04.25-.04.5-.06.35 0 1.9.04.08-.32-2.04-1.02-1.58.39-1.81.42-1.21-1.79 1.27-.85-1.75-1.36-.16.19-.02.01-.04 0-.7-.37-.05-.02-.03-.01-.02.01-.35.37-.04.03-.03.01-.03 0-.04-.01-.03-.02-.92-.82-.35-.26-.65-.5.33-.38.23-.28.09-.14.04-.15-.07-.14-.46-.6-.44-.94-2.69-3.64-3.46-3.17-3.46-2.22-.26-.21-2.12-1.25-.89-.36-1.06-.3-.74-.26-.82-.66-.59-.52-4.38-2.64-1.09-.02-.19-.06-2.12-1.77-2.41-1.99-2.03-1.7-1.64-1.35-.42-.32.09-.15.07-.13.03-.11.07-.43.04-.15.05-.11.07-.12.47-.7 1.41-1.99 1.61-1.66.29-.35-.48.22-.62-.62-.22-.23-.08-.1-.35.19-.04-.05-.2-.29-.15-.33-.1-.26 0-.08.04-.6 0-.2-.02-.21-.03-.18-.02-.07-.05-.07.02-.82.01-.73 0-.59.02-.69 0-.56.01-.46.05-.47.1-.66.07-.37.1-.45.06-.27.03-.27.01-.3-.03-.34-.09-.51-.15-.57-.21-.68-.18-.5-.2-.44-.29-.45-3.11 2.8-.89.76-1.8 1.51-2.29 1.83-2.33 1.79-2.11 1.56-2.29 1.61-2.09 1.41-1.96 1.27-1.98 1.24-18.94 11.28-15.89 9.48-19.55 11.66-15.52 9.25z" /><path d="m549.56 441.47l-.29.35-1.61 1.66-1.41 1.99-.47.7-.07.12-.05.11-.04.15-.07.43-.03.11-.07.13-.09.15.42.32 1.64 1.35 2.03 1.7 2.41 1.99 2.12 1.77.19.06 1.09.02 4.38 2.64.59.52.82.66.74.26 1.06.3.89.36 2.12 1.25.26.21 3.46 2.22 3.46 3.17 2.69 3.64.44.94.46.6.07.14-.04.15-.09.14-.23.28-.33.38.65.5.35.26.92.82.03.02.04.01.03 0 .03-.01.04-.03.35-.37.02-.01.03.01.05.02.7.37.04 0 .02-.01.16-.19 1.75 1.36-1.27.85 1.21 1.79 1.81-.42 1.58-.39 2.04 1.02.4.17.09.05.55.22.52.26.49.3.14.09 1.11.56.83.4.67.28.57.21.13.06-.04.14.31.12.17.05.44.13.91.23.76.19.59.12.45.08.43.06.35.06.65.08.43.04.6.05.75.03.82.01 1.18-.01 2 0 .24 2.17.15 2.3.41 10.18.61 16.3.55 14.56.07 1.73.6 16.29.1 8.27 2.09 1.59.05.05.04.12.13.2.24.25.19.16.28.21.05.02.05.02.05.02.08 0 .14.02.06.02.07.05.23.21.08.08.08.06.23.22.49.39.85.67.24.19.18-.25.06-.1.13-.27.39-.87 1.06-2.25.94-2.07.68-1.56.54-1.14.15-.39.34-.74.18-.34.21-.39.38-.79.13-.28.08-.18.07-.1.12-.21.34-.72.55-1.1.12-.26.26-.51.32-.68.41-.77.64-1.25.22-.4.44-.87.61-1.15.52-1.02.76-1.39 1.13-2.23.99-1.97.93 1.23 1.18 1.53.97 1.27.9 1.09.75.93.39.47.4.5.68.9.29.02.16-.24.79.53 1.14.78 1.36 1 .64.44.94.72 1.7 1.31.91.7.23.2.47.44.36.33 1.04.87.81.72.63.57.36.32.55.44 1.75 1.4.16-.04.18-.14.37-.34.86-.73.39-.31.3-.23.6-.59.03-.01.03-.01.05 0 .33.3 1.57 1.5.31.37 2.35 2.76.71-.5.64-.48.11-.09 1.11-.99 1.07-1.09.17-.15 1.41-1.26.71-.71 1.82-1.77.44-.41.74-.68.38-.3.9-1.05.06-.15.66-1.21.49-.93.02-.02.02-.02.08-.02.08-.04.06-.06.04-.05.05-.11.48-.85 1.12-1.93.58-1.09.36-.62.69-1.1.82-1.23.55-.83-.07-.05.11-.22.19.09.22.1.19.1.18.12.23.19.12.1.12.11.73.81.06.05.06.04.1.04.3.09.07.03.1.07.52.52.39.4 1.19 1.3.63.72 1.46-1.37.11-.07 1.35-1.2.66-.57.78-.68.13-.1.43-.29.61-.38.27-.15.08-.06.25-.18 1.78-1.19.85-.53 1.09-.69.11-.06.49-.38.36-.27 1.01-.66.15-.11.09-.06.8-.54 1.01-.66.61-.42.12-.04.17-.05.61.59.65.57 1.92 1.65 1.04.86 2.32 2.04 1.63 1.41.27.23.11.12.06.09.27.41.76 1.12.62.94.41.66.05.12.14.43 1.26 3.8 1.21-.43.08-.02.07-.02.07 0 .07 0 .67 9.08-.08 1.86-.05 1.12-.09 1.87 0 .31.11.04.09.03.15.02.09 0 .1-.01.1-.02.09-.02.14-.06-.03.58.15 2.04-.14.07-.15.05-.16.03-.19.02-.2.01-.13-.01-.28-.04-.32-.05-.32-.06-.27-.07-.24-.07-.39-.17-.16-.08-.16-.08-.22-.14-.91 1.75-.1.65-.02 0-.07.4 2.36.3.23.22-.15.14.03-.01.71.31.01.02.05.07 0 .06-.06.19-.28.21-.73.39-.48.29-.56.31-.05.06-.04.07 0 .04.03.1.43.59.04.05-.16.13-.29.28-.25.2-.08.07-.06.08-.07.13-.11.16-.12.12-.11.11-.26.31-.05.07.01.07.1.13.13.1.16.11.26.12.58.24.29.15.14.06.18.11.32-.03 3.74.05.18 0 .3.02 1.72 0 1.85.04 1.22 0 .91 0 2.46.02.37.02.96-.01 1.15.01 1.59.02 1.72.02.87 0 .91.02 1.84.04 1.12-.01 1.76.03.98 0 .26.01 1.51 0 .3-.09.58-.19 1.22-.43 1.16-.39.6-.21 1.86-.62.52-.19.66-.23.9-.31.91-.3.96-.32.59-.21 2.67-.9 1.4-.5 1.55-.52.69-.24.04-.02.04-.04.4-.54.95-1.19.62-.79.54-.7.44-.55.27-.34.17-.24.05-.08.3-.35.46-.58.43-.57.11-.12 1.85-2.37.07.05.15.05 2.08.36 1.46.27 2.34.39 1.39.24.33.04 1.44.27.36.06.86.16 1.8.3 1.2.21.57.08.55.11.99.17 1.35.25.54.09.84.14.37.06.42.08.38.07.49.09.77.12.62.1.72.15.42.06.81.14 1.72.32.13.02.23.01.68.11.66.11.7.13.81.14.93.14 1.05.2.29.04-.04-.02-.01-.01 1.67.28.13-2.22.03-.62 0-.15-.01-.45-.02-.56-.01-.36 0-.49-.01-.22-.03-.26-.04-.24-.11-.36-.07-.2-.07-.14-.1-.12.67-.77.18-.26.35-.39.05-.05.18-.11.13-.03.05-.01.05-.02.02-.05.02-.06-.1-.64 0-.09.02-.07.05-.09.04-.06.19-.15.39-.27.33-.2.39-.47.16-.2.8-.68.24-.27.24-.3.21-.2.11-.13.07-.12.03-.09.05-.17.01-.26-.02-.37-.14-1.13 0-.16.01-.09.04-.11.08-.12.13-.16.2-.17.18-.18.22-.25.08-.11.13-.23.05-.14.01-.08.01-.23.02-.11-.02-.28.07-.53 0-.33-.01-.14-.04-.15-.23-.6-.1-.17-.03-.09-.04-.16-.05-.34-.01-.24-.01-.43.01-.61-.02-.25.12-.17-.04-.08-.17-.19-.15-.12-.38-.42-.65-.72-1.31-1.48-.44-.52-.28-.34-.56-.73-.66-.87-1.47-1.97-.61-.83-.33-.51.25-.18-.13-.13-.13-.11-.06-.04-.02-.02-.04-.03-.04-.05-.13-.23-.13-.29-.12-.16-.09-.16-.07-.13-.22-.28-.2-.24-.37-.4-.83-.96-.16-.21-.15-.23-.13-.18-.5-.8-.79-1.35-.36-.57-.13-.24-.04-.05-.23-.27-1.7-1.91-.27.2-.12-.23-.05-.11-.19-.56-.27-1.11-.05-.35-.03-.4 0-.24 0-.23.06-.61.14-.65.09-.38.12-.41.11-.29.07-.22 0-.07.46-.64.26-.32.27-.35.14-.13.44-.45.03-.05 0-.02 0-.02-.09-.11-.14-.13-.06-.05.26-.2 2.46-2.03.24-.19 1.56-1.19.78-.62.91-.71.1-.08.77-.67.24-.19.14-.13.29-.25.12-.08.2-.06.34-.09.61-.04.52-.08.62-.06 1.44-.13.79-.1 1.44-.16.56-.07.26-.04.07-.02.07-.08.06-.1.56-1.13.12-.25.02-.08-.02-.07-.04-.07-.04-.02.56-1.02.6-1.12.23-.45.09-.17.15-.24.05-.12.02-.05.12-.55.07-.41.13-.04.05-.05.04-.08.04-.17.25-1.12.19-1.11.04-.45 0-.43-.02-.09-.03-.15-.53-1.25-.1-.21-.14-.27-.11-.14-.13-.17-.33-.36-.13-.13-.14-.13-.38-.31-.36-.25-.38-.24-.41-.21-.1-.03-.1-.02-.12 0-.15.01-.08.03-.06.04-.8-.13-.37-.07-.4-.1-.09-.02-.09.01-.22.05-.56.2-1.13.31-.22.07-.43.13-.76.24-.85.23-.38.12-.35.13-.29.14-.32.16-1.1.42-.63.26-.15-.02-.4-.08-.55-.15-.4-.14-.95-.4-1.13-.51-.29-.14-.28-.15-.18-.1-.11-.06-.02-.04-.01-.05-.04-.06-.67-.34-.83-.4-.21-.11-.1-.07-.13-.07-.06-.02-.07-.01-.25-.12-.06-.07-.44-.38-1.43-1.36-.24-.23-.3-.24-.13-.14-.56-.87-.14-.19-.34-.48-.13-.18-.26-.31-.17-.3-.21-.4-.16-.3-.16-.28-.12-.28-.16-.24-.05-.25-.09-.44-.08-.29-.11-.49-.15-.86-.15-.65-.1-.32-.06-.23-.06-.31-.13-.52-.07-.4-.05-.18-.07-.58-.09-.28-.08-.34-.07-.36-.06-.39-.08-.33-.13-.64-.17-.91-.05-.12-.03-.13-.15-.62-.17-.82-.12-.42-.09-.38.03-.21 0-.15-.01-.13-.03-.08-.06-.06-.04-.03.06-1.54.05-.32.01-.46.02-.31.04-.46-.01-.81.09-1.06.14-1.77.08-.41.01-.13-.01-.12 0-.03.02-.41.11-.96.02-.92.06-.35.01-.1.03-.78.02-.34.04-.18.01-.03.13-.49.12-.4.16-.47.01.01.1-.09.18-.3.18-.35.08-.13.16-.26.11-.15.12-.13.24-.25.34-.35.38-.31.54-.58.33-.39.66-.68.35-.37.68-.77.33-.4.58-.89.41-.54.21-.26.5-.73.19-.39.27-.67.02-.14.11-1.04.14-.09.12-.07.17-.06.25-.13.11-.09.12-.13.13-.15.16-.16.48-.12-.01-.1-.04-.23.01-.18-.05-.07 0 0-.21-.16-.35.16-1.27-.92-.93-.66-1.05-.75-.12-.03-.12-.05-.64-.38-.63-.39-.08-.02-.35-.1-.28-.13-.29-.21-.16-.1-.5-.22-2.47-1.04-.78-.35-.63-.3-.43-.2-2.06-.91-1.58-.6-1.58-.55-1.29-.42-1.16-.4-.04-.04.42-1.08.59-1.44.11-.23.14-.27.17-.3.42-.58.19-.24-.25-.18-.15-.1-.09-.04-.12-.08-.16.24-.21-.14-.06.08-1.61-1.09-.47-.33-.1-.06-2.18-1.04-.35-.15-2.04-.65-.39-.11-1.32-.4-1.66-.54-.62-.24-1.13-.39-.52-.14-.62-.21-.19-.03.01-.24-.01-.04-.01-.03-.04-.05-.21-.08-.8-.24-.54-.16-1.74-.61-.69-.24-.34-.09.06-.34 0-.07-.01-.05-.03-.04-.03-.03-.07-.07-.04-.05-.01-.03 0-.03.01-.02.03-.06.13-.18.16-.16.03-.04.02-.04.01-.07 0-.05-.01-.03-.03-.06-.05-.06-.04-.03-.14-.07-2.31-1.05-.85-.42-.47-.25-.01 0-.15.29-.14.48-.02.05-.03.04-.04.03-.04.01-.03.01-.07-.01-1.63-.45-1.89-.51-.95-.28-3.94-1.25-.92-.33-.9-.31-.62-.22-1.38-.48-.14-.08-.61-.44-.68-.49-3.39-2.37-.5-.34-1.39-.89-.59-.39-.93-.64-.71-.53-1.06-.82-.35.64-.07.15-.1.24-.13-.05-.11-.07-.91-.81-.8-.74-.25-.27-.39-.38-.23-.2-.65-.62-.66-.66-.54-.56-.19-.17-.22-.2-.31-.29-.3-.26-.48-.33-.5-.38-.54-.37-.44-.29-.11.1-.08.08-.14.17-.1.13-.06.1-.05.09-.05.11-.33.19-.1-.03-.16-.3-.43-.33-5.88-1.58-.2-.04-.23-.04-.24-.03-.16-.01-.32 0-.19.02-.12.01-.22.03-.17.04-.14.03-.16.06-.2.09-.17.1-.11.08-.1.09-.52.38.06.09.3.43.75 1.01.16.24.11.23.1.22.5 1.44.06.22.19.68.22.9-.24 1.32-.24 1.24-.41 2.18-3.04 2.68-.53.45-.34.23-.14.1-.21.19-.19.2-.28.33-.1.14-.49.75-.14.2-.11.15-.11.14-.09.09-.24.22-.17.13-.21.13-.31.16-1.14.58-.32.18-.14.1-.15.12-.14.14-.42.44-.15.14-.14.11-.29.18-.19.09-.14.06-.18.05-.25.06-.22.02-.4.09-.41.12-.46.17-.22.1-.28.14-.08.06-.09.05-.31.19-.37.21-.54.39-.67.43-.13.08-.26.12-.29.12-.72-1.31 2.32-1.4-.76-1.31-.68-1.12-.73-1.22-3.32-5.44.7-.78.53-.61 1.02-1.04.4-.33.38-.3.44-.29.34-.23 1.22-.67 1.15-.63.39-.2.37-.21 1-.62.32-.24.29-.27.35-.36.22-.23.07-.09.24-.32.16-.27.58-.3.11-.1.07-.11.04-.09.01-.08-.02-.11-.19-.68-.77-.12.09-.33.08-.38.02-.18.04-.14.08-.61.11-1.08.04-.3.05-.49.03-.17.03-.28.01-.24.02-.18.03-.14.13-1.29-2.54-.98-.3-.12-.28-.14-.14-.08-.2-.15-.38-.27-.3-.21-.37-.24-.55-.35-.58-.34-.1-.07-.23-.23-.78-.41-.82-.4-.71-.32-.84-.35-.48-.19-.49-.19-1.5-.54-1.26-.46-.28.12-.09-.04-.17-.4-.87-.33-.31-.09-.15-.04-.5-.09-.32-.08-.31-.09-.37-.13-.02.04-.13 0-.07-.03-.31-.09-.67-.26-.92-.34-.93-.32-1.23-.43-.61-.22-.61-.23-1.53-.57-1.22-.45-.62-.22-.93-.32-.92-.31-.44-.14-.24-.06-.38-.08-.38-.06-.38-.03-.25-.01-.39 0-.25.01-.38.05-.26.04-.25.05-.31.07-.3.09-.36.13-.96.4-.22.08-.3.1-.29.07-.24.05-.36.05-.24.03-.24.01-.37 0-.24-.01-.36-.03-.36-.06-.24-.05-.35-.1-.23-.07-.25-.1-.3-.12-.23-.12-.21-.12-.21-.12-.21-.14-.23-.17-.25-.2.82-.93.19-.18-.05-.04-.38-.21-1.33-1.26-.43-.39-.77.79-.21-.21-.24-.22-.25-.21-.23-.18-.2-.15-.3-.22-.31-.2-.21-.13-.33-.19-.33-.17-2.3-1.13-.41-.19-.39-.16-.81-.3-.89-.31-.9-.29-.75-.22-.61-.17-.61-.15-4.41-1.09-.63-.16-.58-.17-.36-.1-.62-.19-.68-.23-.41-.11-1.11-.29-1.17-.3-1.04-.26-1.13-.27-1.09-.25-1.24-.28-1.09-.24-1.18-.25-.96-.2-.64-.12-.64-.12-.65-.11-.96-.16-.65-.09-.65-.09-.56-.06-.44-.04-.44-.03-.45-.01-.4-.01-.48 0-.44.02-.39.02-.33.02-.39.04-.43.05-.66.1-.65.11-.82.18-.38.07-.37.07-.37.05-.43.05-.52.04-.38.02-.4.01-.54 0-.43-.02-.52-.04-.44-.05-.5-.08-.37-.06-.37-.08-.63-.14-.37-.07-.43-.07-.49-.05-.49-.04-.49-.01-.49.02-.48.03-.41.05-.54.08-.48.08-.48.09-.48.1-.47.11-.48.12-.47.13-.75.21-.7.22-.72.22-.76.25-.66.23-.7.25-.7.26-.88.33.37 1.19.4 1.28.69 2.87.29 1.27.33 1.92.33 2.87.27 3.39.37 5 .09 1.35.06.64.2 3.15-1.23.4-2.43.7-.39.13-.19-.87 0-.21-.1-.56-.11-.39-.2-.35.04-.14-.07-.43-.11-.6-.13-.97-.06-.22-.14-.36-.07-.15-.08-.12-.09-.13-.76.66-1.31 1.25-.25.25-.71.71-1.29 1.32-.98 1.04-1.75 1.69-.91.91-.47.51-2.06 2.05-.88.9-.56.53-.61.62-1.29 1.27-.62.58-.21.21-.44.38-.86.76-.66.62-.5.51-.54.52-.52.52-1.47 1.46-.2.17-.41.34-.56.52-1.14 1.2-.55.57-1.17 1.21-.41.51-1.37 1.6-2 2.28-.84.86-.65.69-1.2 1.33-1.44 1.54-.32.29-.63.51-.28.24-.53.53-.4.41-.32.28-.47.36-.59.48-.54.48-.41.41-.54.52-.67.66-.38.39-.16.18-.16.15-.49.52-.6.61z" /></g></g></svg>